<svg xmlns="http://www.w3.org/2000/svg" width="1200" height="2138" viewBox="0 0 1200 2138" role="img" aria-labelledby="diagram-title diagram-description" data-diagram-id="fdai-agent-driven-runtime" data-locale="en">
  <title id="diagram-title">FDAI agent-driven runtime</title>
  <desc id="diagram-description">External signals enter the shared typed event bus and reach Huginn. Huginn publishes normalized events that fan out to Heimdall and Forseti. Heimdall, Njord, Freyr, Loki, Mimir, and Muninn contribute findings, domain evidence, rules, and context without calling one another directly. Forseti owns decisions and asks Odin to arbitrate cross-domain conflicts. Eligible decisions reach Thor, while Var owns human approval and Vidar owns rollback. Forseti, Thor, Var, and Vidar publish audit evidence to Saga. Saga outcomes reach Norns, which proposes inert rule candidates to Mimir. Bragi reads context from Muninn and returns typed action proposals to Huginn so conversations use the same governed path.</desc>
  <metadata>{&quot;id&quot;:&quot;fdai-agent-driven-runtime&quot;,&quot;version&quot;:1,&quot;updated&quot;:&quot;2026-07-23&quot;}</metadata>
  <defs><marker id="arrow-request" viewBox="0 0 10 10" refX="9" refY="5" markerWidth="7" markerHeight="7" orient="auto-start-reverse"><path d="M0 0L10 5L0 10z" fill="#0078d4"/></marker><marker id="arrow-event" viewBox="0 0 10 10" refX="9" refY="5" markerWidth="7" markerHeight="7" orient="auto-start-reverse"><path d="M0 0L10 5L0 10z" fill="#35b4e3"/></marker><marker id="arrow-approval" viewBox="0 0 10 10" refX="9" refY="5" markerWidth="7" markerHeight="7" orient="auto-start-reverse"><path d="M0 0L10 5L0 10z" fill="#8764b8"/></marker><marker id="arrow-mutation" viewBox="0 0 10 10" refX="9" refY="5" markerWidth="7" markerHeight="7" orient="auto-start-reverse"><path d="M0 0L10 5L0 10z" fill="#d83b01"/></marker><marker id="arrow-audit" viewBox="0 0 10 10" refX="9" refY="5" markerWidth="7" markerHeight="7" orient="auto-start-reverse"><path d="M0 0L10 5L0 10z" fill="#107c10"/></marker><marker id="arrow-rollback" viewBox="0 0 10 10" refX="9" refY="5" markerWidth="7" markerHeight="7" orient="auto-start-reverse"><path d="M0 0L10 5L0 10z" fill="#a4262c"/></marker><marker id="arrow-read" viewBox="0 0 10 10" refX="9" refY="5" markerWidth="7" markerHeight="7" orient="auto-start-reverse"><path d="M0 0L10 5L0 10z" fill="#008272"/></marker><marker id="arrow-write" viewBox="0 0 10 10" refX="9" refY="5" markerWidth="7" markerHeight="7" orient="auto-start-reverse"><path d="M0 0L10 5L0 10z" fill="#5c2d91"/></marker><filter id="node-shadow" x="-20%" y="-20%" width="140%" height="150%"><feDropShadow dx="0" dy="2" stdDeviation="3" flood-color="#172b4d" flood-opacity="0.14"/></filter></defs>
  <style>
    svg[data-diagram-id] { color: var(--fdai-diagram-text, #323130); font-family: "Noto Sans KR", "Noto Sans", "Segoe UI", sans-serif; }
    .diagram-title { font-size: 26px; font-weight: 700; fill: var(--fdai-diagram-text, #323130); }
    .diagram-subtitle { font-size: 14px; fill: var(--fdai-diagram-muted, #605e5c); }
    .diagram-group .group-surface { fill: var(--fdai-diagram-surface, #ffffff); stroke: var(--fdai-diagram-border, #a19f9d); stroke-width: 1.5; stroke-dasharray: 5 4; }
    .diagram-group .group-header { fill: var(--fdai-diagram-neutral-header, #edebe9); stroke: none; }
    .diagram-group.group-system .group-surface { fill: var(--fdai-diagram-control-surface, #eff6fc); stroke: var(--fdai-diagram-azure, #0078d4); }
    .diagram-group.group-system .group-header { fill: var(--fdai-diagram-control-header, #deecf9); }
    .diagram-group[data-group-id="control-flow"] .group-header { fill: var(--fdai-diagram-control-header, #deecf9); }
    .diagram-group[data-group-id="operational-signals"] .group-surface { fill: var(--fdai-diagram-surface, #ffffff); stroke: var(--fdai-diagram-border, #a19f9d); }
    .diagram-group[data-group-id="operational-signals"] .group-header { fill: var(--fdai-diagram-neutral-header, #edebe9); }
    .diagram-group[data-group-id="delivery-surfaces"] .group-surface { fill: var(--fdai-diagram-delivery-surface, #f0fbfd); stroke: var(--fdai-diagram-cyan-dark, #35b4e3); }
    .diagram-group[data-group-id="delivery-surfaces"] .group-header { fill: var(--fdai-diagram-delivery-header, #d9f8ff); }
    .diagram-group[data-group-id="rule-catalog-layer"] .group-surface { fill: var(--fdai-diagram-surface, #ffffff); stroke: var(--fdai-diagram-border-strong, #605e5c); }
    .diagram-group[data-group-id="rule-catalog-layer"] .group-header { fill: var(--fdai-diagram-neutral-header, #edebe9); }
    .diagram-group[data-group-id="human-channel"] .group-surface { fill: var(--fdai-diagram-delivery-surface, #f0fbfd); stroke: var(--fdai-diagram-cyan-dark, #35b4e3); }
    .diagram-group[data-group-id="human-channel"] .group-header { fill: var(--fdai-diagram-delivery-header, #d9f8ff); }
    .diagram-group[data-group-id="action-delivery"] .group-surface { fill: var(--fdai-diagram-control-surface, #eff6fc); stroke: var(--fdai-diagram-azure, #0078d4); }
    .diagram-group[data-group-id="action-delivery"] .group-header { fill: var(--fdai-diagram-control-header, #deecf9); }
    .diagram-group[data-group-id="operator-console-layer"] .group-surface { fill: var(--fdai-diagram-delivery-surface, #f0fbfd); stroke: var(--fdai-diagram-cyan-dark, #35b4e3); }
    .diagram-group[data-group-id="operator-console-layer"] .group-header { fill: var(--fdai-diagram-delivery-header, #d9f8ff); }
    .diagram-group.group-network .group-surface, .diagram-group.group-subnet .group-surface { fill: var(--fdai-diagram-delivery-surface, #f0fbfd); stroke: #008272; }
    .group-label { font-size: 14px; font-weight: 650; fill: var(--fdai-diagram-muted, #605e5c); }
    .diagram-node rect { fill: var(--fdai-diagram-node, #ffffff); stroke: var(--fdai-diagram-border, #a19f9d); stroke-width: 1.25; filter: url(#node-shadow); }
    .diagram-node:hover rect, .diagram-node:focus rect, .diagram-node.is-active rect { stroke: var(--fdai-diagram-azure-dark, #005a9e); stroke-width: 3; }
    .diagram-node:focus { outline: none; }
    .node-label { font-size: 13px; font-weight: 650; fill: var(--fdai-diagram-text, #323130); letter-spacing: 0; }
    .generic-icon circle, .generic-icon path { fill: var(--fdai-diagram-azure-soft, #deecf9); stroke: var(--fdai-diagram-azure, #0078d4); stroke-width: 1.8; }
    .generic-icon text { font-size: 12px; font-weight: 700; fill: var(--fdai-diagram-azure-dark, #005a9e); }
    .edge-label rect { fill: var(--fdai-diagram-label-surface, #ffffff); stroke: var(--fdai-diagram-border, #a19f9d); }
    .edge-label-text, .legend-item text { font-size: 12px; font-weight: 600; fill: var(--fdai-diagram-muted, #605e5c); }
    .diagram-edge.is-muted { opacity: 0.12; }
    .diagram-edge.is-active path { stroke-width: 4; }
  </style>
  <rect class="diagram-background" width="1200" height="2138" fill="var(--fdai-diagram-canvas, #faf9f8)"/>
  <text class="diagram-title" x="48" y="45">FDAI agent-driven runtime</text>
  <text class="diagram-subtitle" x="48" y="72">Independently runnable agents coordinate through typed events while authority stays with one writer for each object type.</text>
  <g data-diagram-viewport=""><g class="diagram-group group-system" data-group-id="agent-runtime" role="group" aria-label="Schema-validated event-bus choreography"><rect class="group-surface" x="88" y="152" width="1010.9333333333334" height="1888" rx="8"/><rect class="group-header" x="89" y="153" width="1008.9333333333334" height="38" rx="7"/><text class="group-label" x="106" y="179" text-anchor="start"><tspan x="106" dy="0">Schema-validated event-bus choreography</tspan></text></g><g class="diagram-edge edge-event" data-edge-id="signals-to-bus" data-edge-from="external-signals" data-edge-to="typed-event-bus"><title>Asynchronous event</title><path d="M765.4571428571428 314 L765.4571428571428 358.5" fill="none" stroke="#35b4e3" stroke-width="2.4" stroke-dasharray="7 4" stroke-linecap="round" stroke-linejoin="round" marker-end="url(#arrow-event)"/></g><g class="diagram-edge edge-event" data-edge-id="bus-to-huginn" data-edge-from="typed-event-bus" data-edge-to="huginn"><title>validated event</title><path d="M765.4571428571428 468.5 L765.4571428571428 573" fill="none" stroke="#35b4e3" stroke-width="2.4" stroke-dasharray="7 4" stroke-linecap="round" stroke-linejoin="round" marker-end="url(#arrow-event)"/><g class="edge-label" transform="translate(703.4571428571428 525)"><rect x="-60" y="-12" width="120" height="24" rx="4"/><text class="edge-label-text" x="0" y="4.199999999999999" text-anchor="middle"><tspan x="0" dy="0">validated event</tspan></text></g></g><g class="diagram-edge edge-event" data-edge-id="huginn-to-heimdall" data-edge-from="huginn" data-edge-to="heimdall"><title>concurrent fan-out</title><path d="M716.1238095238095 683 L716.1238095238095 688 Q716.1238095238095 693 711.1238095238095 693 L695.4571428571428 693 Q681.4571428571428 693 681.4571428571428 707 L681.4571428571428 779" fill="none" stroke="#35b4e3" stroke-width="2.4" stroke-dasharray="7 4" stroke-linecap="round" stroke-linejoin="round" marker-end="url(#arrow-event)"/><g class="edge-label" transform="translate(609.4571428571428 731)"><rect x="-70" y="-12" width="140" height="24" rx="4"/><text class="edge-label-text" x="0" y="4.199999999999999" text-anchor="middle"><tspan x="0" dy="0">concurrent fan-out</tspan></text></g></g><g class="diagram-edge edge-event" data-edge-id="huginn-to-forseti" data-edge-from="huginn" data-edge-to="forseti"><title>Asynchronous event</title><path d="M765.4571428571428 683 L765.4571428571428 885 Q765.4571428571428 899 779.4571428571428 899 L815.3142857142857 899 Q829.3142857142857 899 829.3142857142857 913 L829.3142857142857 949" fill="none" stroke="#35b4e3" stroke-width="2.4" stroke-dasharray="7 4" stroke-linecap="round" stroke-linejoin="round" marker-end="url(#arrow-event)"/></g><g class="diagram-edge edge-event" data-edge-id="heimdall-to-forseti" data-edge-from="heimdall" data-edge-to="forseti"><title>Asynchronous event</title><path d="M681.4571428571428 889 L681.4571428571428 899 Q681.4571428571428 909 691.4571428571428 909 L794.1714285714286 909 Q808.1714285714286 909 808.1714285714286 923 L808.1714285714286 949" fill="none" stroke="#35b4e3" stroke-width="2.4" stroke-dasharray="7 4" stroke-linecap="round" stroke-linejoin="round" marker-end="url(#arrow-event)"/></g><g class="diagram-edge edge-read" data-edge-id="njord-to-forseti" data-edge-from="njord" data-edge-to="forseti"><title>Read projection</title><path d="M364.12380952380954 889 L364.12380952380954 915 Q364.12380952380954 929 378.12380952380954 929 L755.8857142857142 929 Q765.8857142857142 929 765.8857142857144 939 L765.8857142857144 949" fill="none" stroke="#008272" stroke-width="2.2" stroke-dasharray="5 4" stroke-linecap="round" stroke-linejoin="round" marker-end="url(#arrow-read)"/></g><g class="diagram-edge edge-read" data-edge-id="freyr-to-forseti" data-edge-from="freyr" data-edge-to="forseti"><title>Read projection</title><path d="M850.4571428571428 889 L850.4571428571429 949" fill="none" stroke="#008272" stroke-width="2.2" stroke-dasharray="5 4" stroke-linecap="round" stroke-linejoin="round" marker-end="url(#arrow-read)"/></g><g class="diagram-edge edge-read" data-edge-id="loki-to-forseti" data-edge-from="loki" data-edge-to="forseti"><title>Read projection</title><path d="M194.12380952380954 889 L194.12380952380954 925 Q194.12380952380954 939 208.12380952380954 939 L739.7428571428571 939 Q744.7428571428571 939 744.7428571428571 944 L744.7428571428571 949" fill="none" stroke="#008272" stroke-width="2.2" stroke-dasharray="5 4" stroke-linecap="round" stroke-linejoin="round" marker-end="url(#arrow-read)"/></g><g class="diagram-edge edge-read" data-edge-id="mimir-to-forseti" data-edge-from="mimir" data-edge-to="forseti"><title>governed rules</title><path d="M954.9333333333333 1902 L954.9333333333333 1083 Q954.9333333333333 1069 940.9333333333333 1069 L851.9333333333333 1069 Q846.9333333333333 1069 846.9333333333334 1064 L846.9333333333334 1059" fill="none" stroke="#008272" stroke-width="2.2" stroke-dasharray="5 4" stroke-linecap="round" stroke-linejoin="round" marker-end="url(#arrow-read)"/><g class="edge-label" transform="translate(1014.4333333333333 1416)"><rect x="-56.5" y="-12" width="113" height="24" rx="4"/><text class="edge-label-text" x="0" y="4.199999999999999" text-anchor="middle"><tspan x="0" dy="0">governed rules</tspan></text></g></g><g class="diagram-edge edge-read" data-edge-id="muninn-to-forseti" data-edge-from="muninn" data-edge-to="forseti"><title>correlated context</title><path d="M448.12380952380954 683 L448.12380952380954 905 Q448.12380952380954 919 462.12380952380954 919 L773.0285714285715 919 Q787.0285714285715 919 787.0285714285715 933 L787.0285714285715 949" fill="none" stroke="#008272" stroke-width="2.2" stroke-dasharray="5 4" stroke-linecap="round" stroke-linejoin="round" marker-end="url(#arrow-read)"/><g class="edge-label" transform="translate(375.62380952380954 731)"><rect x="-70.5" y="-12" width="141" height="24" rx="4"/><text class="edge-label-text" x="0" y="4.199999999999999" text-anchor="middle"><tspan x="0" dy="0">correlated context</tspan></text></g></g><g class="diagram-edge edge-request" data-edge-id="forseti-to-odin" data-edge-from="forseti" data-edge-to="odin"><title>conflict</title><path d="M797.6 1059 L797.6 1155" fill="none" stroke="#0078d4" stroke-width="2.4" stroke-dasharray="none" stroke-linecap="round" stroke-linejoin="round" marker-end="url(#arrow-request)"/><g class="edge-label" transform="translate(758.6 1107)"><rect x="-37" y="-12" width="74" height="24" rx="4"/><text class="edge-label-text" x="0" y="4.199999999999999" text-anchor="middle"><tspan x="0" dy="0">conflict</tspan></text></g></g><g class="diagram-edge edge-event" data-edge-id="odin-to-forseti" data-edge-from="odin" data-edge-to="forseti"><title>arbitration</title><path d="M846.9333333333333 1155 L846.9333333333333 1091.3333333333333 Q846.9333333333333 1079 834.5999999999999 1079 L832.2666666666667 1079 Q822.2666666666667 1079 822.2666666666667 1069 L822.2666666666667 1059" fill="none" stroke="#35b4e3" stroke-width="2.4" stroke-dasharray="7 4" stroke-linecap="round" stroke-linejoin="round" marker-end="url(#arrow-event)"/><g class="edge-label" transform="translate(897.4333333333333 1107)"><rect x="-47.5" y="-12" width="95" height="24" rx="4"/><text class="edge-label-text" x="0" y="4.199999999999999" text-anchor="middle"><tspan x="0" dy="0">arbitration</tspan></text></g></g><g class="diagram-edge edge-request" data-edge-id="forseti-to-thor" data-edge-from="forseti" data-edge-to="thor"><title>eligible decision</title><path d="M748.2666666666667 1059 L748.2666666666667 1064 Q748.2666666666667 1069 743.2666666666667 1069 L599 1069 Q585 1069 585 1083 L585 1155" fill="none" stroke="#0078d4" stroke-width="2.4" stroke-dasharray="none" stroke-linecap="round" stroke-linejoin="round" marker-end="url(#arrow-request)"/><g class="edge-label" transform="translate(516 1107)"><rect x="-67" y="-12" width="134" height="24" rx="4"/><text class="edge-label-text" x="0" y="4.199999999999999" text-anchor="middle"><tspan x="0" dy="0">eligible decision</tspan></text></g></g><g class="diagram-edge edge-approval" data-edge-id="thor-to-var" data-edge-from="thor" data-edge-to="var"><title>approval required</title><path d="M511 1155 L511 1147 Q511 1139 503 1139 L277 1139 Q263 1139 263 1125 L263 1059" fill="none" stroke="#8764b8" stroke-width="2.6" stroke-dasharray="3 4" stroke-linecap="round" stroke-linejoin="round" marker-end="url(#arrow-approval)"/><g class="edge-label" transform="translate(194 1107)"><rect x="-67" y="-12" width="134" height="24" rx="4"/><text class="edge-label-text" x="0" y="4.199999999999999" text-anchor="middle"><tspan x="0" dy="0">approval required</tspan></text></g></g><g class="diagram-edge edge-approval" data-edge-id="var-to-thor" data-edge-from="var" data-edge-to="thor"><title>approved or rejected</title><path d="M300 1059 L300 1064 Q300 1069 295 1069 L287 1069 Q274 1069 274 1082 L274 1115 Q274 1129 288 1129 L535 1129 Q548 1129 548 1142 L548 1155" fill="none" stroke="#8764b8" stroke-width="2.6" stroke-dasharray="3 4" stroke-linecap="round" stroke-linejoin="round" marker-end="url(#arrow-approval)"/><g class="edge-label" transform="translate(358 1107)"><rect x="-81" y="-12" width="162" height="24" rx="4"/><text class="edge-label-text" x="0" y="4.199999999999999" text-anchor="middle"><tspan x="0" dy="0">approved or rejected</tspan></text></g></g><g class="diagram-edge edge-rollback" data-edge-id="thor-to-vidar" data-edge-from="thor" data-edge-to="vidar"><title>failed action</title><path d="M511 1265 L511 1270 Q511 1275 506 1275 L504.8333333333333 1275 Q498.66666666666663 1275 498.66666666666663 1281.1666666666667 L498.66666666666663 1361" fill="none" stroke="#a4262c" stroke-width="2.6" stroke-dasharray="9 4 2 4" stroke-linecap="round" stroke-linejoin="round" marker-end="url(#arrow-rollback)"/><g class="edge-label" transform="translate(443.66666666666663 1313)"><rect x="-53" y="-12" width="106" height="24" rx="4"/><text class="edge-label-text" x="0" y="4.199999999999999" text-anchor="middle"><tspan x="0" dy="0">failed action</tspan></text></g></g><g class="diagram-edge edge-rollback" data-edge-id="vidar-to-thor" data-edge-from="vidar" data-edge-to="thor"><title>rollback result</title><path d="M548 1361 L548 1265" fill="none" stroke="#a4262c" stroke-width="2.6" stroke-dasharray="9 4 2 4" stroke-linecap="round" stroke-linejoin="round" marker-end="url(#arrow-rollback)"/><g class="edge-label" transform="translate(611 1313)"><rect x="-60" y="-12" width="120" height="24" rx="4"/><text class="edge-label-text" x="0" y="4.199999999999999" text-anchor="middle"><tspan x="0" dy="0">rollback result</tspan></text></g></g><g class="diagram-edge edge-audit" data-edge-id="forseti-to-saga" data-edge-from="forseti" data-edge-to="saga"><title>Audit record</title><path d="M772.9333333333334 1059 L772.9333333333334 1069 Q772.9333333333333 1079 762.9333333333333 1079 L724.6 1079 Q710.6 1079 710.6 1093 L710.6 1507" fill="none" stroke="#107c10" stroke-width="2.4" stroke-dasharray="2 4" stroke-linecap="round" stroke-linejoin="round" marker-end="url(#arrow-audit)"/></g><g class="diagram-edge edge-audit" data-edge-id="thor-to-saga" data-edge-from="thor" data-edge-to="saga"><title>Audit record</title><path d="M585 1265 L585 1270 Q585 1275 590 1275 L667 1275 Q681 1275 681 1289 L681 1507" fill="none" stroke="#107c10" stroke-width="2.4" stroke-dasharray="2 4" stroke-linecap="round" stroke-linejoin="round" marker-end="url(#arrow-audit)"/></g><g class="diagram-edge edge-audit" data-edge-id="var-to-saga" data-edge-from="var" data-edge-to="saga"><title>Audit record</title><path d="M226 1059 L226 1064 Q226 1069 221 1069 L130 1069 Q116 1069 116 1083 L116 1477 Q116 1491 130 1491 L613.8 1491 Q621.8 1491 621.8 1499 L621.8 1507" fill="none" stroke="#107c10" stroke-width="2.4" stroke-dasharray="2 4" stroke-linecap="round" stroke-linejoin="round" marker-end="url(#arrow-audit)"/></g><g class="diagram-edge edge-audit" data-edge-id="vidar-to-saga" data-edge-from="vidar" data-edge-to="saga"><title>Audit record</title><path d="M523.3333333333333 1471 L523.3333333333333 1476 Q523.3333333333333 1481 528.3333333333333 1481 L638.4 1481 Q651.4 1481 651.4 1494 L651.4 1507" fill="none" stroke="#107c10" stroke-width="2.4" stroke-dasharray="2 4" stroke-linecap="round" stroke-linejoin="round" marker-end="url(#arrow-audit)"/></g><g class="diagram-edge edge-event" data-edge-id="saga-to-norns" data-edge-from="saga" data-edge-to="norns"><title>measured outcomes</title><path d="M666.2 1600 L666.2 1696" fill="none" stroke="#35b4e3" stroke-width="2.4" stroke-dasharray="7 4" stroke-linecap="round" stroke-linejoin="round" marker-end="url(#arrow-event)"/><g class="edge-label" transform="translate(597.2 1648)"><rect x="-67" y="-12" width="134" height="24" rx="4"/><text class="edge-label-text" x="0" y="4.199999999999999" text-anchor="middle"><tspan x="0" dy="0">measured outcomes</tspan></text></g></g><g class="diagram-edge edge-write" data-edge-id="norns-to-mimir" data-edge-from="norns" data-edge-to="mimir"><title>inert candidate</title><path d="M666.2 1806 L666.2 1862 Q666.2 1876 680.2 1876 L892.6 1876 Q905.6 1876 905.6 1889 L905.6 1902" fill="none" stroke="#5c2d91" stroke-width="2.6" stroke-dasharray="none" stroke-linecap="round" stroke-linejoin="round" marker-end="url(#arrow-write)"/><g class="edge-label" transform="translate(604.2 1854)"><rect x="-60" y="-12" width="120" height="24" rx="4"/><text class="edge-label-text" x="0" y="4.199999999999999" text-anchor="middle"><tspan x="0" dy="0">inert candidate</tspan></text></g></g><g class="diagram-edge edge-read" data-edge-id="bragi-to-muninn" data-edge-from="bragi" data-edge-to="muninn"><title>read-only context</title><path d="M570.7904761904762 477 L570.7904761904762 482 Q570.7904761904762 487 565.7904761904762 487 L462.12380952380954 487 Q448.12380952380954 487 448.12380952380954 501 L448.12380952380954 573" fill="none" stroke="#008272" stroke-width="2.2" stroke-dasharray="5 4" stroke-linecap="round" stroke-linejoin="round" marker-end="url(#arrow-read)"/><g class="edge-label" transform="translate(379.62380952380954 525)"><rect x="-66.5" y="-12" width="133" height="24" rx="4"/><text class="edge-label-text" x="0" y="4.199999999999999" text-anchor="middle"><tspan x="0" dy="0">read-only context</tspan></text></g></g><g class="diagram-edge edge-request" data-edge-id="bragi-to-huginn" data-edge-from="bragi" data-edge-to="huginn"><title>typed action proposal</title><path d="M620.1238095238095 477 L620.1238095238095 533 Q620.1238095238095 547 634.1238095238095 547 L703.1238095238095 547 Q716.1238095238095 547 716.1238095238095 560 L716.1238095238095 573" fill="none" stroke="#0078d4" stroke-width="2.4" stroke-dasharray="none" stroke-linecap="round" stroke-linejoin="round" marker-end="url(#arrow-request)"/><g class="edge-label" transform="translate(538.6238095238095 525)"><rect x="-79.5" y="-12" width="159" height="24" rx="4"/><text class="edge-label-text" x="0" y="4.199999999999999" text-anchor="middle"><tspan x="0" dy="0">typed action proposal</tspan></text></g></g><g class="diagram-node node-external" data-node-id="external-signals" role="button" tabindex="0" aria-label="Signals and operator requests. Signals and operator requests"><rect x="691.4571428571428" y="204" width="148" height="110" rx="8"/><g class="generic-icon" aria-hidden="true"><circle cx="765.4571428571428" cy="237" r="21"/><text x="765.4571428571428" y="241" text-anchor="middle">SA</text></g><text class="node-label" x="765.4571428571428" y="281" text-anchor="middle"><tspan x="765.4571428571428" dy="0">Signals and</tspan><tspan x="765.4571428571428" dy="17">operator requests</tspan></text></g><g class="diagram-node node-service" data-node-id="typed-event-bus" role="button" tabindex="0" aria-label="Shared typed event bus. Schema validation, subscriber isolation, retry, dead-letter, and replay"><rect x="691.4571428571428" y="358.5" width="148" height="110" rx="8"/><g class="generic-icon" aria-hidden="true"><circle cx="765.4571428571428" cy="391.5" r="21"/><text x="765.4571428571428" y="395.5" text-anchor="middle">ST</text></g><text class="node-label" x="765.4571428571428" y="435.5" text-anchor="middle"><tspan x="765.4571428571428" dy="0">Shared typed</tspan><tspan x="765.4571428571428" dy="17">event bus</tspan></text></g><g class="diagram-node node-agent" data-node-id="huginn" role="button" tabindex="0" aria-label="Huginn - event owner. Normalizes and publishes object.event"><rect x="666.7904761904762" y="573" width="148" height="110" rx="8"/><g class="generic-icon" aria-hidden="true"><circle cx="740.7904761904762" cy="606" r="21"/><text x="740.7904761904762" y="610" text-anchor="middle">H-</text></g><text class="node-label" x="740.7904761904762" y="650" text-anchor="middle"><tspan x="740.7904761904762" dy="0">Huginn - event</tspan><tspan x="740.7904761904762" dy="17">owner</tspan></text></g><g class="diagram-node node-agent" data-node-id="heimdall" role="button" tabindex="0" aria-label="Heimdall - observer. Anomaly, drift, and forecast findings"><rect x="607.4571428571428" y="779" width="148" height="110" rx="8"/><g class="generic-icon" aria-hidden="true"><circle cx="681.4571428571428" cy="812" r="21"/><text x="681.4571428571428" y="816" text-anchor="middle">H-</text></g><text class="node-label" x="681.4571428571428" y="856" text-anchor="middle"><tspan x="681.4571428571428" dy="0">Heimdall -</tspan><tspan x="681.4571428571428" dy="17">observer</tspan></text></g><g class="diagram-node node-agent" data-node-id="njord" role="button" tabindex="0" aria-label="Njord - cost evidence. Njord - cost evidence"><rect x="290.12380952380954" y="779" width="148" height="110" rx="8"/><g class="generic-icon" aria-hidden="true"><circle cx="364.12380952380954" cy="812" r="21"/><text x="364.12380952380954" y="816" text-anchor="middle">N-</text></g><text class="node-label" x="364.12380952380954" y="856" text-anchor="middle"><tspan x="364.12380952380954" dy="0">Njord - cost</tspan><tspan x="364.12380952380954" dy="17">evidence</tspan></text></g><g class="diagram-node node-agent" data-node-id="freyr" role="button" tabindex="0" aria-label="Freyr - capacity evidence. Freyr - capacity evidence"><rect x="776.4571428571428" y="779" width="148" height="110" rx="8"/><g class="generic-icon" aria-hidden="true"><circle cx="850.4571428571428" cy="812" r="21"/><text x="850.4571428571428" y="816" text-anchor="middle">F-</text></g><text class="node-label" x="850.4571428571428" y="856" text-anchor="middle"><tspan x="850.4571428571428" dy="0">Freyr - capacity</tspan><tspan x="850.4571428571428" dy="17">evidence</tspan></text></g><g class="diagram-node node-agent" data-node-id="loki" role="button" tabindex="0" aria-label="Loki - chaos evidence. Loki - chaos evidence"><rect x="120.12380952380954" y="779" width="148" height="110" rx="8"/><g class="generic-icon" aria-hidden="true"><circle cx="194.12380952380954" cy="812" r="21"/><text x="194.12380952380954" y="816" text-anchor="middle">L-</text></g><text class="node-label" x="194.12380952380954" y="856" text-anchor="middle"><tspan x="194.12380952380954" dy="0">Loki - chaos</tspan><tspan x="194.12380952380954" dy="17">evidence</tspan></text></g><g class="diagram-node node-agent" data-node-id="mimir" role="button" tabindex="0" aria-label="Mimir - rules and policy. Mimir - rules and policy"><rect x="856.2666666666667" y="1902" width="148" height="110" rx="8"/><g class="generic-icon" aria-hidden="true"><circle cx="930.2666666666667" cy="1935" r="21"/><text x="930.2666666666667" y="1939" text-anchor="middle">M-</text></g><text class="node-label" x="930.2666666666667" y="1979" text-anchor="middle"><tspan x="930.2666666666667" dy="0">Mimir - rules and</tspan><tspan x="930.2666666666667" dy="17">policy</tspan></text></g><g class="diagram-node node-agent" data-node-id="muninn" role="button" tabindex="0" aria-label="Muninn - state and context. Muninn - state and context"><rect x="374.12380952380954" y="573" width="148" height="110" rx="8"/><g class="generic-icon" aria-hidden="true"><circle cx="448.12380952380954" cy="606" r="21"/><text x="448.12380952380954" y="610" text-anchor="middle">M-</text></g><text class="node-label" x="448.12380952380954" y="650" text-anchor="middle"><tspan x="448.12380952380954" dy="0">Muninn - state and</tspan><tspan x="448.12380952380954" dy="17">context</tspan></text></g><g class="diagram-node node-agent" data-node-id="forseti" role="button" tabindex="0" aria-label="Forseti - decision owner. Sole writer of object.verdict"><rect x="723.6" y="949" width="148" height="110" rx="8"/><g class="generic-icon" aria-hidden="true"><circle cx="797.6" cy="982" r="21"/><text x="797.6" y="986" text-anchor="middle">F-</text></g><text class="node-label" x="797.6" y="1026" text-anchor="middle"><tspan x="797.6" dy="0">Forseti -</tspan><tspan x="797.6" dy="17">decision owner</tspan></text></g><g class="diagram-node node-agent" data-node-id="odin" role="button" tabindex="0" aria-label="Odin - arbitration owner. Resolves cross-domain conflicts"><rect x="748.2666666666667" y="1155" width="148" height="110" rx="8"/><g class="generic-icon" aria-hidden="true"><circle cx="822.2666666666667" cy="1188" r="21"/><text x="822.2666666666667" y="1192" text-anchor="middle">O-</text></g><text class="node-label" x="822.2666666666667" y="1232" text-anchor="middle"><tspan x="822.2666666666667" dy="0">Odin -</tspan><tspan x="822.2666666666667" dy="17">arbitration owner</tspan></text></g><g class="diagram-node node-agent" data-node-id="thor" role="button" tabindex="0" aria-label="Thor - action owner. Sole privileged executor"><rect x="474" y="1155" width="148" height="110" rx="8"/><g class="generic-icon" aria-hidden="true"><circle cx="548" cy="1188" r="21"/><text x="548" y="1192" text-anchor="middle">T-</text></g><text class="node-label" x="548" y="1232" text-anchor="middle"><tspan x="548" dy="0">Thor - action</tspan><tspan x="548" dy="17">owner</tspan></text></g><g class="diagram-node node-agent" data-node-id="var" role="button" tabindex="0" aria-label="Var - approval owner. Var - approval owner"><rect x="189" y="949" width="148" height="110" rx="8"/><g class="generic-icon" aria-hidden="true"><circle cx="263" cy="982" r="21"/><text x="263" y="986" text-anchor="middle">V-</text></g><text class="node-label" x="263" y="1026" text-anchor="middle"><tspan x="263" dy="0">Var - approval</tspan><tspan x="263" dy="17">owner</tspan></text></g><g class="diagram-node node-agent" data-node-id="vidar" role="button" tabindex="0" aria-label="Vidar - rollback owner. Vidar - rollback owner"><rect x="449.3333333333333" y="1361" width="148" height="110" rx="8"/><g class="generic-icon" aria-hidden="true"><circle cx="523.3333333333333" cy="1394" r="21"/><text x="523.3333333333333" y="1398" text-anchor="middle">V-</text></g><text class="node-label" x="523.3333333333333" y="1438" text-anchor="middle"><tspan x="523.3333333333333" dy="0">Vidar - rollback</tspan><tspan x="523.3333333333333" dy="17">owner</tspan></text></g><g class="diagram-node node-agent" data-node-id="saga" role="button" tabindex="0" aria-label="Saga - audit owner. Append-only terminal evidence"><rect x="592.2" y="1507" width="148" height="93" rx="8"/><g class="generic-icon" aria-hidden="true"><circle cx="666.2" cy="1540" r="21"/><text x="666.2" y="1544" text-anchor="middle">S-</text></g><text class="node-label" x="666.2" y="1584" text-anchor="middle"><tspan x="666.2" dy="0">Saga - audit owner</tspan></text></g><g class="diagram-node node-agent" data-node-id="norns" role="button" tabindex="0" aria-label="Norns - learning candidate owner. Norns - learning candidate owner"><rect x="592.2" y="1696" width="148" height="110" rx="8"/><g class="generic-icon" aria-hidden="true"><circle cx="666.2" cy="1729" r="21"/><text x="666.2" y="1733" text-anchor="middle">N-</text></g><text class="node-label" x="666.2" y="1773" text-anchor="middle"><tspan x="666.2" dy="0">Norns - learning</tspan><tspan x="666.2" dy="17">candidate owner</tspan></text></g><g class="diagram-node node-agent" data-node-id="bragi" role="button" tabindex="0" aria-label="Bragi - conversation translator. Bragi - conversation translator"><rect x="521.4571428571428" y="350" width="148" height="127" rx="8"/><g class="generic-icon" aria-hidden="true"><circle cx="595.4571428571428" cy="383" r="21"/><text x="595.4571428571428" y="387" text-anchor="middle">B-</text></g><text class="node-label" x="595.4571428571428" y="427" text-anchor="middle"><tspan x="595.4571428571428" dy="0">Bragi -</tspan><tspan x="595.4571428571428" dy="17">conversation</tspan><tspan x="595.4571428571428" dy="17">translator</tspan></text></g><g class="diagram-legend" role="group" aria-label="Legend"><g class="legend-item" transform="translate(48 2108)"><line x1="0" y1="0" x2="34" y2="0" stroke="#35b4e3" stroke-width="2.4" stroke-dasharray="7 4" marker-end="url(#arrow-event)"/><text x="45" y="5">Typed event</text></g><g class="legend-item" transform="translate(182 2108)"><line x1="0" y1="0" x2="34" y2="0" stroke="#0078d4" stroke-width="2.4" stroke-dasharray="none" marker-end="url(#arrow-request)"/><text x="45" y="5">Request</text></g><g class="legend-item" transform="translate(302 2108)"><line x1="0" y1="0" x2="34" y2="0" stroke="#008272" stroke-width="2.2" stroke-dasharray="5 4" marker-end="url(#arrow-read)"/><text x="45" y="5">Evidence read</text></g><g class="legend-item" transform="translate(450 2108)"><line x1="0" y1="0" x2="34" y2="0" stroke="#8764b8" stroke-width="2.6" stroke-dasharray="3 4" marker-end="url(#arrow-approval)"/><text x="45" y="5">Human approval</text></g><g class="legend-item" transform="translate(605 2108)"><line x1="0" y1="0" x2="34" y2="0" stroke="#a4262c" stroke-width="2.6" stroke-dasharray="9 4 2 4" marker-end="url(#arrow-rollback)"/><text x="45" y="5">Rollback</text></g><g class="legend-item" transform="translate(725 2108)"><line x1="0" y1="0" x2="34" y2="0" stroke="#107c10" stroke-width="2.4" stroke-dasharray="2 4" marker-end="url(#arrow-audit)"/><text x="45" y="5">Audit</text></g><g class="legend-item" transform="translate(845 2108)"><line x1="0" y1="0" x2="34" y2="0" stroke="#5c2d91" stroke-width="2.6" stroke-dasharray="none" marker-end="url(#arrow-write)"/><text x="45" y="5">Candidate</text></g></g></g>
</svg>
