<svg xmlns="http://www.w3.org/2000/svg" viewBox="0 0 64 64" role="img" aria-labelledby="title desc">
  <title id="title">FDAI Cloud Gateway concept</title>
  <desc id="desc">Three trust routes converge inside a compact cloud gateway and emerge as one safe forward action.</desc>
  <g fill="none" stroke="#2B7FE0" stroke-width="6" stroke-linecap="square" stroke-linejoin="miter">
    <path d="M4 14h11c9 0 9 18 21 18h7"/>
    <path d="M4 32h39"/>
    <path d="M4 50h11c9 0 9-18 21-18h7"/>
  </g>
  <path fill="#2B7FE0" fill-rule="evenodd" d="M32 49c-7 0-12-5-12-11 0-5 3-9 8-11 1-8 7-13 15-13 6 0 11 4 13 9 4 1 7 5 7 10 0 7-5 12-12 12H32Zm8-27 13 10-13 10V22Z"/>
</svg>
